<svg xmlns="http://www.w3.org/2000/svg" width="11" height="11" viewBox="0 0 11 11"><title>variable-font</title><path d="M2.5,5A2.476,2.476,0,0,1,0,2.5,2.476,2.476,0,0,1,2.5,0,2.476,2.476,0,0,1,5,2.5,2.476,2.476,0,0,1,2.5,5Zm0-4A1.538,1.538,0,0,0,1,2.5,1.538,1.538,0,0,0,2.5,4,1.538,1.538,0,0,0,4,2.5,1.538,1.538,0,0,0,2.5,1Z" fill="#9d978f"/><path d="M8.5,11A2.5,2.5,0,1,1,11,8.5,2.476,2.476,0,0,1,8.5,11Zm0-4A1.5,1.5,0,1,0,10,8.5,1.538,1.538,0,0,0,8.5,7Z" fill="#9d978f"/><path d="M.5,8h4a.472.472,0,0,1,.5.5H5a.472.472,0,0,1-.5.5H.5A.472.472,0,0,1,0,8.5H0A.472.472,0,0,1,.5,8Z" fill="#9d978f"/><path d="M6.5,2h4a.472.472,0,0,1,.5.5h0a.472.472,0,0,1-.5.5h-4A.472.472,0,0,1,6,2.5H6A.472.472,0,0,1,6.5,2Z" fill="#9d978f"/></svg>